<svg id="Layer_1" data-name="Layer 1" xmlns="http://www.w3.org/2000/svg" viewBox="0 0 207.98 223.65"><defs><style>.cls-1,.cls-8{fill:none;}.cls-1{stroke:#2f333d;stroke-width:3px;}.cls-1,.cls-7,.cls-8{stroke-miterlimit:10;}.cls-2{fill:#f9c1d3;}.cls-3{fill:#fff;}.cls-4{fill:#f3b8c9;}.cls-5,.cls-9{fill:#2f333d;}.cls-6{fill:#e8e3f1;}.cls-7{fill:#f4f0f8;}.cls-7,.cls-8{stroke:#e8e3f1;stroke-linecap:round;stroke-width:4px;}.cls-9{opacity:0.2;}</style></defs><path class="cls-1" d="M189.22,106.27a69.09,69.09,0,0,1-9.49,9.6,2.5,2.5,0,0,0-.92,1.93v58.43a20.66,20.66,0,0,1-.53,4.63c-.75,1.78-1.24,3.17-3.08,3.79a5.36,5.36,0,0,1-3-.25l-1.12-.67a44.65,44.65,0,0,0-5.3-2.87h0s0,0,0,0a13.06,13.06,0,0,0-5.63-1.21,11.4,11.4,0,0,0-4.57,1.22c-.46.22-.92.46-1.37.71h0c-1.39.79-2.75,1.74-4.09,2.68-2.67,1.89-5.44,3.84-7.83,3.89-2.18.07-5-1.71-7.66-3.42a28.73,28.73,0,0,0-7.6-3.87,11,11,0,0,0-2.86-.4h-.11a10.38,10.38,0,0,0-2.66.4c-2.71.74-5.24,2.43-7.7,4.08a45.45,45.45,0,0,1-4,2.49,8.3,8.3,0,0,1-3.7,1.15c-2.32,0-5.09-1.85-7.78-3.65-2.48-1.66-5-3.36-7.76-4.07A10.08,10.08,0,0,0,88,180.5h-.1a10.65,10.65,0,0,0-2.7.36c-2.76.69-5.34,2.34-7.86,3.94s-5.31,3.39-7.46,3.39h-.1c-2.45-.06-5.25-2.05-8-4a39.19,39.19,0,0,0-5.27-3.35A11.63,11.63,0,0,0,52,179.59a13.94,13.94,0,0,0-6,1.27c-.37.15-.73.32-1.09.5-1.42.68-2.79,1.47-4.09,2.23l-1.23.71-.24.14-.23.13-.11.05a6.21,6.21,0,0,1-2.65.21c-2.13-.5-3-1.45-3.7-4a29.15,29.15,0,0,1-.53-4.63V120.48a2.54,2.54,0,0,0-1.15-2.11,59.25,59.25,0,0,1-12.58-11.53c-11-13.21-14.89-28-8.76-33.13,4.19-3.48,12-1.5,20,4.31a2.49,2.49,0,0,0,3.93-1.81A72.81,72.81,0,0,1,93.08,10.66c1-.19,2.1-.36,3.16-.5h0a72.86,72.86,0,0,1,82.18,64.65,2.49,2.49,0,0,0,3.88,1.79c6.81-4.49,13-5.93,16.46-3.13C204.48,78.13,200.21,92.82,189.22,106.27Z"/><path class="cls-2" d="M39.29,184.44l-.23.13-.11.05Z"/><path class="cls-3" d="M154.21,181.57h0c-1.39.79-2.75,1.74-4.09,2.68-2.67,1.89-5.44,3.84-7.83,3.89-2.18.07-5-1.71-7.66-3.42a28.73,28.73,0,0,0-7.6-3.87,11,11,0,0,0-2.86-.4h-.11a10.38,10.38,0,0,0-2.66.4c-2.71.74-5.24,2.43-7.7,4.08a45.45,45.45,0,0,1-4,2.49,8.3,8.3,0,0,1-3.7,1.15c-2.32,0-5.09-1.85-7.78-3.65-2.48-1.66-5-3.36-7.76-4.07A10.08,10.08,0,0,0,88,180.5h-.1a10.65,10.65,0,0,0-2.7.36c-2.76.69-5.34,2.34-7.86,3.94s-5.31,3.39-7.46,3.39h-.1c-2.45-.06-5.25-2.05-8-4a39.19,39.19,0,0,0-5.27-3.35A11.63,11.63,0,0,0,52,179.59a13.94,13.94,0,0,0-6,1.27c-.37.15-.73.32-1.09.5-1.42.68-2.79,1.47-4.09,2.23l-1.23.71-.24.14-.23.13-.11.05a6.21,6.21,0,0,1-2.65.21c-2.13-.5-3-1.45-3.7-4a29.15,29.15,0,0,1-.53-4.63V120.48a2.54,2.54,0,0,0-1.15-2.11,59.25,59.25,0,0,1-12.58-11.53c-11-13.21-14.89-28-8.76-33.13,4.19-3.48,12-1.5,20,4.31a2.49,2.49,0,0,0,3.93-1.81A72.81,72.81,0,0,1,93.08,10.66c1-.19,2.1-.36,3.16-.5h0c.84.21,51,12.56,57.95,65.57C155.77,87.78,154.23,180.42,154.21,181.57Z"/><path class="cls-4" d="M39.29,184.44l-.23.13-.11.05Z"/><circle class="cls-5" cx="83.75" cy="75.73" r="5.79"/><circle class="cls-6" cx="76.2" cy="91.76" r="5.27"/><circle class="cls-6" cx="132.51" cy="91.76" r="5.27"/><circle class="cls-5" cx="124.15" cy="75.73" r="5.79"/><path class="cls-5" d="M93.13,86.44a2,2,0,0,1,2-2.47h18a2,2,0,0,1,2,2.47,11.24,11.24,0,0,1-21.93,0Z"/><path class="cls-7" d="M84.21,26.37a18.58,18.58,0,0,1,2.85-1.21"/><path class="cls-8" d="M56.68,50.37c6.46-10.48,10.74-15.43,21.48-21"/><path class="cls-6" d="M189.22,106.27a69.09,69.09,0,0,1-9.49,9.6,2.5,2.5,0,0,0-.92,1.93v58.43a20.66,20.66,0,0,1-.53,4.63c-.75,1.78-1.24,3.17-3.08,3.79a5.36,5.36,0,0,1-3-.25l-1.12-.67a44.65,44.65,0,0,0-5.3-2.87h0s0,0,0,0a13.06,13.06,0,0,0-5.63-1.21,11.4,11.4,0,0,0-4.57,1.22c-.46.22-.92.46-1.37.71,0-1.15,1.56-93.79,0-105.84-6.92-53-57.11-65.36-57.95-65.57a72.86,72.86,0,0,1,82.18,64.65,2.49,2.49,0,0,0,3.88,1.79c6.81-4.49,13-5.93,16.46-3.13C204.48,78.13,200.21,92.82,189.22,106.27Z"/><ellipse class="cls-4" cx="104.28" cy="91.26" rx="4.8" ry="2.35"/><ellipse class="cls-9" cx="103.99" cy="208.55" rx="70.35" ry="5.58"/></svg>