<svg id="Layer_1" data-name="Layer 1" xmlns="http://www.w3.org/2000/svg" viewBox="0 0 183.17 81.05"><defs><style>.cls-1{fill:#2f333d;}</style></defs><path class="cls-1" d="M93.65,73.78a12,12,0,0,1-1.35.07h3A15.5,15.5,0,0,1,93.65,73.78Z"/><circle class="cls-1" cx="12.09" cy="26.53" r="1.81"/><circle class="cls-1" cx="58.72" cy="19.12" r="1.81"/><circle class="cls-1" cx="64.91" cy="37.7" r="1.81"/><path class="cls-1" d="M117.15,14.43h-12.9a1.89,1.89,0,0,1-1.92-1.54,1.81,1.81,0,0,1,1.79-2.08h2.15a1.49,1.49,0,0,0,.47-.07,1.78,1.78,0,0,0,1.32-2,1.91,1.91,0,0,0-1.93-1.59H92c-10.73,0-19.55,8.45-20.61,19.26v2.16a0,0,0,0,1,0,0H65.78a1.89,1.89,0,0,0-1.92,1.54,1.81,1.81,0,0,0,1.79,2.08h8.94v0a1.79,1.79,0,0,1,0,3.56v0H70.13a1.89,1.89,0,0,0-1.92,1.54A1.81,1.81,0,0,0,70,39.51h4.23a1.9,1.9,0,0,1,1.92,1.54,1.81,1.81,0,0,1-1.79,2.08H71.73a.36.36,0,0,0-.37.37V53.59A12.85,12.85,0,0,0,72.25,59a.5.5,0,0,0,.47.32H82.6a1.9,1.9,0,0,1,1.92,1.54,1.81,1.81,0,0,1-1.79,2.08h-10a1.89,1.89,0,0,0-1.92,1.54,1.81,1.81,0,0,0,1.79,2.08H85.74v0a1.79,1.79,0,0,1,0,3.56v0h-6a1.89,1.89,0,0,0-1.92,1.54,1.81,1.81,0,0,0,1.79,2.08l12.69.07h3c11.45,0,20.73-9.61,20.73-21.46V28.65a21.7,21.7,0,0,0-1-6.7.4.4,0,0,0-.38-.28h-8.17v0a1.8,1.8,0,0,1,0-3.58v0H117a1.9,1.9,0,0,0,1.92-1.54A1.81,1.81,0,0,0,117.15,14.43Zm-15.52,38a7.64,7.64,0,0,1-.07,1.08,7.87,7.87,0,0,1-15.6,0,7.64,7.64,0,0,1-.07-1.08V29.06a7.87,7.87,0,0,1,15.74,0Z"/><path class="cls-1" d="M2.65,54.59h0Z"/><path class="cls-1" d="M2.65,51h0Z"/><path class="cls-1" d="M106.67,21.67h-.2v0A.68.68,0,0,0,106.67,21.67Z"/><path class="cls-1" d="M106.67,18.05a.68.68,0,0,0-.2,0v0Z"/><path class="cls-1" d="M74.59,32.27v0a.61.61,0,0,0-.23,0Z"/><path class="cls-1" d="M74.59,35.86v0h-.23A.61.61,0,0,0,74.59,35.86Z"/><path class="cls-1" d="M85.74,66.54v0a.61.61,0,0,0-.23,0Z"/><path class="cls-1" d="M85.74,70.13v0h-.23A.61.61,0,0,0,85.74,70.13Z"/><path class="cls-1" d="M63.15,45h-10a1,1,0,0,1-1-1V28.22a0,0,0,0,1,0,0H59a1.9,1.9,0,0,0,1.92-1.54,1.81,1.81,0,0,0-1.79-2.08H46.33A1.9,1.9,0,0,1,44.41,23a1.81,1.81,0,0,1,1.79-2.08h7.3a1.9,1.9,0,0,0,1.92-1.54,1.81,1.81,0,0,0-1.79-2.08H48.39a1.9,1.9,0,0,1-1.92-1.54,1.81,1.81,0,0,1,1.79-2.08H58.59a1.9,1.9,0,0,0,1.92-1.54,1.81,1.81,0,0,0-1.79-2.08h-6.6a0,0,0,0,1,0-.05V8.24a1,1,0,0,0-1-1H34l0,0L21.52,24.7s0,0,0,0H17.31a1.9,1.9,0,0,0-1.92,1.54,1.81,1.81,0,0,0,1.79,2.08h8.93A1.9,1.9,0,0,1,28,29.88,1.81,1.81,0,0,1,26.24,32H7.87a1.91,1.91,0,0,0-1.93,1.55,1.81,1.81,0,0,0,1.8,2.07h6s.06,0,0,.08L7.23,44.84A2,2,0,0,0,6.86,46v1.23a.12.12,0,0,0,.12.12h1.7a1.79,1.79,0,0,1,1.74,1.38,1.54,1.54,0,0,1,.06.43v0A1.81,1.81,0,0,1,8.69,51H2.55a1.8,1.8,0,0,0,0,3.6H6.81a0,0,0,0,1,.05,0v4.45a1,1,0,0,0,1,1h29a1,1,0,0,1,1.05,1v.74a1,1,0,0,0,1,1h2.46a1.9,1.9,0,0,1,1.92,1.54,1.81,1.81,0,0,1-1.79,2.08H34.81a1.9,1.9,0,0,0-1.92,1.54,1.81,1.81,0,0,0,1.79,2.08h3.26a0,0,0,0,1,.05,0v2.59a1,1,0,0,0,1,1H51a1,1,0,0,0,1-1V61.19a1,1,0,0,1,1-1h10a1,1,0,0,0,1.05-1v-13A1,1,0,0,0,63.15,45ZM37.63,44a1,1,0,0,1-1.05,1H25.2a.2.2,0,0,1-.17-.32L37.26,27.53a.2.2,0,0,1,.37.11Z"/><circle class="cls-1" cx="130.21" cy="26.53" r="1.81"/><circle class="cls-1" cx="176.84" cy="19.12" r="1.81"/><path class="cls-1" d="M181.27,45h-10a1,1,0,0,1-1.05-1V28.22a0,0,0,0,1,.05,0h6.83A1.9,1.9,0,0,0,179,26.63a1.81,1.81,0,0,0-1.79-2.08H164.45A1.9,1.9,0,0,1,162.53,23a1.81,1.81,0,0,1,1.79-2.08h7.3a1.9,1.9,0,0,0,1.92-1.54,1.81,1.81,0,0,0-1.79-2.08h-5.24a1.9,1.9,0,0,1-1.92-1.54,1.81,1.81,0,0,1,1.79-2.08h10.33a1.9,1.9,0,0,0,1.92-1.54,1.81,1.81,0,0,0-1.79-2.08h-6.6a0,0,0,0,1-.05-.05V8.24a1,1,0,0,0-1.05-1h-17l0,0L139.64,24.7s0,0,0,0h-4.18a1.9,1.9,0,0,0-1.92,1.54,1.81,1.81,0,0,0,1.79,2.08h8.93a1.9,1.9,0,0,1,1.92,1.54A1.81,1.81,0,0,1,144.36,32H126a1.91,1.91,0,0,0-1.93,1.55,1.81,1.81,0,0,0,1.8,2.07h6s.06,0,0,.08l-6.52,9.18A2,2,0,0,0,125,46v1.23a.12.12,0,0,0,.12.12h1.7a1.79,1.79,0,0,1,1.74,1.38,1.54,1.54,0,0,1,.06.43v0A1.81,1.81,0,0,1,126.81,51h-6.14a1.8,1.8,0,0,0,0,3.6h4.26a0,0,0,0,1,0,0v4.45a1,1,0,0,0,1,1h29a1,1,0,0,1,1.05,1v.74a1,1,0,0,0,1,1h2.46a1.9,1.9,0,0,1,1.92,1.54,1.81,1.81,0,0,1-1.79,2.08h-6.77A1.9,1.9,0,0,0,151,68.09a1.81,1.81,0,0,0,1.79,2.08h3.26a0,0,0,0,1,.05,0v2.59a1,1,0,0,0,1,1h12a1,1,0,0,0,1.05-1V61.19a1,1,0,0,1,1.05-1h10a1,1,0,0,0,1-1v-13A1,1,0,0,0,181.27,45Zm-25.52-1a1,1,0,0,1-1.05,1H143.32a.2.2,0,0,1-.17-.32l12.23-17.16a.2.2,0,0,1,.37.11Z"/></svg>