<svg id="Layer_1" data-name="Layer 1" xmlns="http://www.w3.org/2000/svg" viewBox="0 0 320.4 313.04"><defs><style>.cls-1{fill:#91a7ff;}</style></defs><path class="cls-1" d="M172.84,51H33.33a14,14,0,0,1,0-28.08H172.84a14,14,0,0,1,0,28.08Z" transform="translate(-14.27 -17.96)"/><path class="cls-1" d="M172.84,54.94H33.33a18,18,0,0,1,0-35.94H172.84a18,18,0,0,1,0,35.94ZM33.33,26.86a10.11,10.11,0,0,0-.64,20.21H172.84a10.11,10.11,0,0,0,0-20.21Z" transform="translate(-14.27 -17.96)"/><path class="cls-1" d="M172.84,188.65H33.33a14,14,0,1,1,0-28.08H172.84c35.29,0,68.72-15.14,94.12-42.63,22-23.81,35.67-54.84,35.67-81a14,14,0,1,1,28.08,0c0,33.41-16.13,70.8-43.13,100C256.8,170.3,216.05,188.65,172.84,188.65Z" transform="translate(-14.27 -17.96)"/><path class="cls-1" d="M172.84,192.58H33.33a18,18,0,0,1,0-35.94H172.84c34.18,0,66.58-14.69,91.23-41.37C285.43,92.16,298.7,62.15,298.7,37a18,18,0,1,1,35.94,0c0,34.37-16.51,72.76-44.17,102.69C258.94,173.79,217.16,192.58,172.84,192.58ZM33.33,164.5a10.11,10.11,0,0,0,0,20.22H172.84c42.1,0,81.83-17.9,111.85-50.39C311,105.81,326.78,69.41,326.78,37a10.11,10.11,0,1,0-20.22,0c0,27.08-14.06,59.13-36.71,83.64-26.16,28.31-60.61,43.89-97,43.89Z" transform="translate(-14.27 -17.96)"/><path class="cls-1" d="M132.31,119.84h-99a14,14,0,0,1,0-28.08H172.58c28.91-.68,59.84-22.84,59.84-54.78a14,14,0,1,1,28.07,0c0,20.53-9,41.21-24.72,56.74a91.37,91.37,0,0,1-62.64,26.11Z" transform="translate(-14.27 -17.96)"/><path class="cls-1" d="M132.31,123.77h-99a18,18,0,1,1,0-35.94H172.56c27-.64,55.92-21.23,55.92-50.85a18,18,0,0,1,35.94,0c0,21.57-9.43,43.27-25.88,59.54a95.39,95.39,0,0,1-65.32,27.24Zm-99-28.09a10.11,10.11,0,0,0-.64,20.21c.22,0,.43,0,.64,0H173.08a87.46,87.46,0,0,0,59.95-25c15-14.8,23.55-34.47,23.55-53.95a10.11,10.11,0,0,0-20.21-.64c0,.22,0,.43,0,.64,0,34.21-32.93,58-63.67,58.71-3.7.06-92.61,0-139.37,0Z" transform="translate(-14.27 -17.96)"/><path class="cls-1" d="M172.84,327.07H33.33a14,14,0,1,1,0-28.08H172.84a14,14,0,1,1,0,28.08Z" transform="translate(-14.27 -17.96)"/><path class="cls-1" d="M172.84,331H33.33a18,18,0,0,1,0-35.94H172.84a18,18,0,0,1,0,35.94ZM33.33,302.93a10.11,10.11,0,0,0-.64,20.21H172.84a10.11,10.11,0,0,0,0-20.21Z" transform="translate(-14.27 -17.96)"/><path class="cls-1" d="M316.67,327.07a14,14,0,0,1-14-14c0-26.13-13.67-57.16-35.67-81-25.4-27.49-58.83-42.63-94.12-42.63H33.33a14,14,0,0,1,0-28.08H172.84c43.21,0,84,18.35,114.74,51.66,27,29.22,43.13,66.61,43.13,100a14,14,0,0,1-13.95,14.05Z" transform="translate(-14.27 -17.96)"/><path class="cls-1" d="M316.67,331a18,18,0,0,1-18-18c0-25.18-13.27-55.19-34.63-78.3-24.65-26.68-57-41.37-91.23-41.37H33.33a18,18,0,0,1,0-35.94H172.84c44.32,0,86.1,18.79,117.63,52.92,27.66,29.93,44.17,68.32,44.17,102.69A18,18,0,0,1,316.67,331ZM33.33,165.28a10.11,10.11,0,0,0,0,20.22H172.84c36.4,0,70.85,15.58,97,43.89C292.5,253.9,306.56,286,306.56,313a10.11,10.11,0,0,0,20.22,0h0c0-32.44-15.74-68.84-42.09-97.36-30-32.49-69.75-50.39-111.85-50.39Z" transform="translate(-14.27 -17.96)"/><path class="cls-1" d="M246.47,327.07a14,14,0,0,1-14-14c0-25.91-24.48-54.78-59.6-54.78H33.33a14,14,0,1,1,0-28.08H172.84a88.87,88.87,0,0,1,62.06,25.2c16.28,15.75,25.61,36.77,25.61,57.66a14,14,0,0,1-14,14Z" transform="translate(-14.27 -17.96)"/><path class="cls-1" d="M246.47,331a18,18,0,0,1-18-18c0-24-22.86-50.85-55.66-50.85H33.33a18,18,0,1,1,0-35.94H172.84a92.74,92.74,0,0,1,64.79,26.31c17,16.48,26.81,38.53,26.81,60.48A18,18,0,0,1,246.47,331ZM33.33,234.11a10.11,10.11,0,0,0-.64,20.21c.22,0,.43,0,.64,0H172.84a64.39,64.39,0,0,1,45.74,18.82c11.3,11.24,17.79,25.79,17.79,39.89a10.11,10.11,0,0,0,20.21.64c0-.22,0-.43,0-.64,0-19.83-8.9-39.82-24.41-54.83a85,85,0,0,0-59.33-24.09Z" transform="translate(-14.27 -17.96)"/></svg>